<svg width="30" height="29" viewBox="0 0 30 29" fill="none" xmlns="http://www.w3.org/2000/svg">
<path d="M1.7085 3.02084H3.98774C4.46613 3.02084 4.70532 3.02084 4.89978 3.10758C5.0712 3.18405 5.21764 3.30722 5.32235 3.46301C5.44113 3.63973 5.48211 3.87538 5.56408 4.3467L6.069 7.25001M6.069 7.25001L7.24189 13.9941C7.42107 15.0244 7.51066 15.5395 7.77599 15.9106C8.00962 16.2374 8.33622 16.4862 8.71327 16.6247C9.14149 16.782 9.66193 16.7317 10.7028 16.6309L23.5876 15.384C24.6089 15.2852 25.1195 15.2358 25.5055 15.0051C25.8454 14.8019 26.1174 14.5023 26.2869 14.1444C26.4793 13.738 26.4793 13.225 26.4793 12.1989V10.9609C26.4793 9.87033 26.4793 9.32507 26.2693 8.90373C26.0845 8.53295 25.7892 8.22871 25.424 8.03303C25.0091 7.81066 24.4641 7.79452 23.374 7.76226L6.069 7.25001Z" stroke="white" stroke-width="1.8" stroke-linecap="round" stroke-linejoin="round"/>
<ellipse cx="10.7707" cy="22.9584" rx="2.41667" ry="2.41667" stroke="white" stroke-width="1.8"/>
<circle cx="22.2502" cy="22.9584" r="2.41667" stroke="white" stroke-width="1.8"/>
</svg>
