<svg width="50" height="50" viewBox="0 0 50 50" fill="none" xmlns="http://www.w3.org/2000/svg">
<path d="M25 42C15.6 42 8 34.4 8 25C8 15.6 15.6 8 25 8C34.4 8 42 15.6 42 25C42 34.4 34.4 42 25 42ZM25 10C16.7 10 10 16.7 10 25C10 33.3 16.7 40 25 40C33.3 40 40 33.3 40 25C40 16.7 33.3 10 25 10Z" fill="#616060"/>
<path d="M32.2827 16.3018L33.6967 17.7168L17.7167 33.6968L16.3027 32.2828L32.2827 16.3018Z" fill="#616060"/>
<path d="M17.7167 16.3018L33.6967 32.2818L32.2827 33.6968L16.3027 17.7168L17.7167 16.3018Z" fill="#616060"/>
</svg>
