<svg width="24" height="25" viewBox="0 0 24 25" fill="none" xmlns="http://www.w3.org/2000/svg">
<path fill-rule="evenodd" clip-rule="evenodd" d="M4.2 5.7L11.76 11.37C11.8292 11.4219 11.9135 11.45 12 11.45C12.0865 11.45 12.1708 11.4219 12.24 11.37L19.8 5.7H4.2ZM20.8 6.45L12.96 12.33C12.683 12.5377 12.3462 12.65 12 12.65C11.6538 12.65 11.317 12.5377 11.04 12.33L3.2 6.45V19.3H20.8V6.45ZM3 4.5H21C21.2652 4.5 21.5196 4.60536 21.7071 4.79289C21.8946 4.98043 22 5.23478 22 5.5V19.5C22 19.7652 21.8946 20.0196 21.7071 20.2071C21.5196 20.3946 21.2652 20.5 21 20.5H3C2.73478 20.5 2.48043 20.3946 2.29289 20.2071C2.10536 20.0196 2 19.7652 2 19.5V5.5C2 5.23478 2.10536 4.98043 2.29289 4.79289C2.48043 4.60536 2.73478 4.5 3 4.5Z" fill="#946B55"/>
</svg>
