<svg width="19" height="25" viewBox="0 0 19 25" fill="none" xmlns="http://www.w3.org/2000/svg">
<mask id="path-1-inside-1_77_503" fill="white">
<path d="M16.3572 9.15375L16.3596 9.15625L16.3645 9.16L16.3768 9.17C16.43 9.21117 16.4815 9.25454 16.5313 9.3C16.6596 9.41592 16.7831 9.53727 16.9015 9.66375C17.1957 9.98 17.5733 10.45 17.9276 11.0787C18.6412 12.3475 19.2407 14.2387 18.9035 16.7675C18.5713 19.2638 17.5427 21.35 15.8043 22.805C14.0707 24.255 11.7242 25 8.88609 25C5.95969 25 3.62299 23.8813 2.07704 21.9625C0.544575 20.0612 -0.139517 17.4675 0.0235367 14.6325C0.180462 11.9125 1.63324 9.84875 2.91683 8.02625L3.2834 7.505C4.68346 5.49 5.78806 3.63375 5.51957 1.03625C5.50599 0.905519 5.51953 0.773337 5.5593 0.648287C5.59908 0.523236 5.6642 0.408113 5.75045 0.310392C5.8367 0.212671 5.94214 0.134537 6.05992 0.0810626C6.17771 0.0275885 6.30521 -3.0172e-05 6.43415 2.47349e-08C6.90247 2.47349e-08 7.43944 0.1475 7.9568 0.37C8.55589 0.631887 9.1212 0.967729 9.64006 1.37C10.7741 2.2425 11.9081 3.5575 12.5125 5.315C13.1157 7.0675 12.8092 8.7375 12.3679 9.95375C12.0773 10.7525 12.3924 11.5413 12.8668 11.7712C13.0687 11.8686 13.2997 11.8827 13.5115 11.8105C13.7233 11.7382 13.8995 11.5854 14.0033 11.3838L14.9914 9.47C15.0533 9.34994 15.1399 9.245 15.2454 9.1624C15.3509 9.0798 15.4727 9.02151 15.6024 8.99157C15.7321 8.96162 15.8667 8.96073 15.9968 8.98894C16.1269 9.01716 16.2494 9.07381 16.3559 9.155"/>
</mask>
<path d="M16.3572 9.15375L16.3596 9.15625L16.3645 9.16L16.3768 9.17C16.43 9.21117 16.4815 9.25454 16.5313 9.3C16.6596 9.41592 16.7831 9.53727 16.9015 9.66375C17.1957 9.98 17.5733 10.45 17.9276 11.0787C18.6412 12.3475 19.2407 14.2387 18.9035 16.7675C18.5713 19.2638 17.5427 21.35 15.8043 22.805C14.0707 24.255 11.7242 25 8.88609 25C5.95969 25 3.62299 23.8813 2.07704 21.9625C0.544575 20.0612 -0.139517 17.4675 0.0235367 14.6325C0.180462 11.9125 1.63324 9.84875 2.91683 8.02625L3.2834 7.505C4.68346 5.49 5.78806 3.63375 5.51957 1.03625C5.50599 0.905519 5.51953 0.773337 5.5593 0.648287C5.59908 0.523236 5.6642 0.408113 5.75045 0.310392C5.8367 0.212671 5.94214 0.134537 6.05992 0.0810626C6.17771 0.0275885 6.30521 -3.0172e-05 6.43415 2.47349e-08C6.90247 2.47349e-08 7.43944 0.1475 7.9568 0.37C8.55589 0.631887 9.1212 0.967729 9.64006 1.37C10.7741 2.2425 11.9081 3.5575 12.5125 5.315C13.1157 7.0675 12.8092 8.7375 12.3679 9.95375C12.0773 10.7525 12.3924 11.5413 12.8668 11.7712C13.0687 11.8686 13.2997 11.8827 13.5115 11.8105C13.7233 11.7382 13.8995 11.5854 14.0033 11.3838L14.9914 9.47C15.0533 9.34994 15.1399 9.245 15.2454 9.1624C15.3509 9.0798 15.4727 9.02151 15.6024 8.99157C15.7321 8.96162 15.8667 8.96073 15.9968 8.98894C16.1269 9.01716 16.2494 9.07381 16.3559 9.155" fill="white"/>
<path d="M16.3596 9.15625L15.5091 10.2683L15.43 10.2078L15.3602 10.1367L16.3596 9.15625ZM16.3645 9.16L17.215 8.04796L17.2324 8.06128L17.2494 8.07514L16.3645 9.16ZM16.3768 9.17L15.52 10.2772L15.5058 10.2662L15.4919 10.2549L16.3768 9.17ZM16.5313 9.3L15.5929 10.339L15.5867 10.3333L16.5313 9.3ZM16.9015 9.66375L17.9237 8.70709L17.9265 8.71012L16.9015 9.66375ZM17.9276 11.0787L19.1473 10.3914L19.1479 10.3925L17.9276 11.0787ZM18.9035 16.7675L17.5157 16.5828L17.5158 16.5825L18.9035 16.7675ZM15.8043 22.805L16.7028 23.8786L16.7025 23.8789L15.8043 22.805ZM2.07704 21.9625L3.16704 21.0839L3.16721 21.0841L2.07704 21.9625ZM0.0235367 14.6325L-1.37415 14.5521L-1.37414 14.5519L0.0235367 14.6325ZM2.91683 8.02625L4.06201 8.83159L4.06144 8.8324L2.91683 8.02625ZM3.2834 7.505L4.43313 8.30386L4.42857 8.31034L3.2834 7.505ZM5.51957 1.03625L6.91208 0.891587L6.91215 0.892307L5.51957 1.03625ZM6.43415 2.47349e-08V1.4L6.43382 1.4L6.43415 2.47349e-08ZM7.9568 0.37L8.50993 -0.916128L8.51756 -0.912789L7.9568 0.37ZM9.64006 1.37L8.78636 2.4796L8.78226 2.47642L9.64006 1.37ZM12.5125 5.315L11.1887 5.77062L11.1886 5.77029L12.5125 5.315ZM12.3679 9.95375L13.6839 10.4313L13.6835 10.4323L12.3679 9.95375ZM12.8668 11.7712L12.2586 13.0322L12.2561 13.031L12.8668 11.7712ZM14.0033 11.3838L12.7586 10.7428L12.7593 10.7414L14.0033 11.3838ZM14.9914 9.47L16.236 10.1111L16.2354 10.1123L14.9914 9.47ZM17.3566 8.17333L17.359 8.17583L15.3602 10.1367L15.3578 10.1342L17.3566 8.17333ZM17.2101 8.04421L17.215 8.04796L15.514 10.272L15.5091 10.2683L17.2101 8.04421ZM17.2494 8.07514L17.2617 8.08514L15.4919 10.2549L15.4796 10.2449L17.2494 8.07514ZM17.2335 8.06277C17.3171 8.12739 17.3979 8.19541 17.4758 8.26666L15.5867 10.3333C15.5652 10.3137 15.5429 10.295 15.52 10.2772L17.2335 8.06277ZM17.4696 8.26101C17.6271 8.40323 17.7786 8.55206 17.9237 8.7071L15.8793 10.6204C15.7877 10.5225 15.6921 10.4286 15.5929 10.339L17.4696 8.26101ZM17.9265 8.71012C18.2841 9.09454 18.731 9.65262 19.1473 10.3914L16.708 11.766C16.4157 11.2474 16.1073 10.8655 15.8765 10.6174L17.9265 8.71012ZM19.1479 10.3925C19.9954 11.8995 20.6723 14.0942 20.2912 16.9525L17.5158 16.5825C17.809 14.3833 17.2869 12.7955 16.7074 11.765L19.1479 10.3925ZM20.2913 16.9522C19.9219 19.7272 18.7582 22.1583 16.7028 23.8786L14.9057 21.7314C16.3271 20.5417 17.2206 18.8003 17.5157 16.5828L20.2913 16.9522ZM16.7025 23.8789C14.6581 25.5888 11.9666 26.4 8.88609 26.4V23.6C11.4818 23.6 13.4833 22.9212 14.906 21.7311L16.7025 23.8789ZM8.88609 26.4C5.57781 26.4 2.82369 25.1206 0.986866 22.8409L3.16721 21.0841C4.42229 22.6419 6.34158 23.6 8.88609 23.6V26.4ZM0.987038 22.8411C-0.812464 20.6085 -1.55215 17.647 -1.37415 14.5521L1.42123 14.7129C1.27312 17.288 1.90161 19.514 3.16704 21.0839L0.987038 22.8411ZM-1.37414 14.5519C-1.19104 11.3782 0.514683 9.00561 1.77223 7.2201L4.06144 8.8324C2.7518 10.6919 1.55197 12.4468 1.42121 14.7131L-1.37414 14.5519ZM1.77166 7.22091L2.13822 6.69966L4.42857 8.31034L4.06201 8.83159L1.77166 7.22091ZM2.13368 6.70615C3.51496 4.71819 4.33923 3.23347 4.12699 1.18019L6.91215 0.892307C7.23689 4.03403 5.85196 6.26181 4.43311 8.30384L2.13368 6.70615ZM4.12706 1.18091C4.0936 0.858824 4.12689 0.532912 4.22517 0.223927L6.89344 1.07265C6.91217 1.01376 6.91838 0.952214 6.91208 0.891587L4.12706 1.18091ZM4.22517 0.223927C4.32346 -0.0851094 4.48499 -0.371493 4.7008 -0.616013L6.8001 1.2368C6.84342 1.18772 6.87469 1.13158 6.89344 1.07265L4.22517 0.223927ZM4.7008 -0.616013C4.91667 -0.860607 5.18222 -1.05799 5.48118 -1.19372L6.63866 1.35584C6.70206 1.32706 6.75672 1.28595 6.8001 1.2368L4.7008 -0.616013ZM5.48118 -1.19372C5.78024 -1.32948 6.10512 -1.40008 6.43447 -1.4L6.43382 1.4C6.5053 1.40002 6.57519 1.38466 6.63866 1.35584L5.48118 -1.19372ZM6.43415 -1.4C7.16616 -1.4 7.90114 -1.17792 8.50992 -0.916105L7.40369 1.65611C6.97775 1.47292 6.63878 1.4 6.43415 1.4V-1.4ZM8.51756 -0.912789C9.22301 -0.604408 9.88803 -0.209224 10.4979 0.263577L8.78226 2.47642C8.35437 2.14468 7.88877 1.86818 7.39604 1.65279L8.51756 -0.912789ZM10.4938 0.260408C11.8003 1.26563 13.126 2.79385 13.8364 4.85971L11.1886 5.77029C10.6903 4.32115 9.74789 3.21937 8.78636 2.47959L10.4938 0.260408ZM13.8363 4.85938C14.5807 7.02215 14.1881 9.04184 13.6839 10.4313L11.0518 9.47619C11.4303 8.43316 11.6507 7.11285 11.1887 5.77062L13.8363 4.85938ZM13.6835 10.4323C13.6448 10.5388 13.655 10.6208 13.6668 10.6584C13.6727 10.6773 13.6746 10.671 13.6559 10.6469C13.6384 10.6242 13.5851 10.5636 13.4775 10.5115L12.2561 13.031C11.5793 12.7029 11.1767 12.0777 10.9941 11.4932C10.8024 10.8792 10.8004 10.1675 11.0522 9.47516L13.6835 10.4323ZM13.4751 10.5103C13.3463 10.4482 13.1966 10.4387 13.0597 10.4854L13.9633 13.1355C13.4028 13.3267 12.7911 13.2891 12.2586 13.0322L13.4751 10.5103ZM13.0597 10.4854C12.9235 10.5318 12.8182 10.6272 12.7586 10.7428L15.248 12.0247C14.9808 12.5435 14.523 12.9447 13.9633 13.1355L13.0597 10.4854ZM12.7593 10.7414L13.7475 8.8277L16.2354 10.1123L15.2473 12.0261L12.7593 10.7414ZM13.7469 8.82889C13.9004 8.5309 14.1166 8.26818 14.3823 8.06012L16.1085 10.2647C16.1633 10.2218 16.2062 10.169 16.236 10.1111L13.7469 8.82889ZM14.3823 8.06012C14.6481 7.85199 14.9568 7.7038 15.2875 7.62745L15.9173 10.3557C15.9886 10.3392 16.0537 10.3076 16.1085 10.2647L14.3823 8.06012ZM15.2875 7.62745C15.6183 7.55108 15.9617 7.54879 16.2935 7.62075L15.7 10.3571C15.7717 10.3727 15.846 10.3722 15.9173 10.3557L15.2875 7.62745ZM16.2935 7.62075C16.6253 7.69271 16.936 7.83683 17.2045 8.04149L15.5074 10.2685C15.5628 10.3108 15.6285 10.3416 15.7 10.3571L16.2935 7.62075Z" fill="#946B55" mask="url(#path-1-inside-1_77_503)"/>
</svg>
