<svg width="40" height="41" viewBox="0 0 40 41" fill="none" xmlns="http://www.w3.org/2000/svg">
<g clip-path="url(#clip0_96_698)">
<path fill-rule="evenodd" clip-rule="evenodd" d="M24.8476 3.0996C26.5121 1.43511 28.7696 0.5 31.1236 0.5C33.4776 0.5 35.7351 1.43511 37.3996 3.0996C39.0641 4.7641 39.9992 7.02165 39.9992 9.3756C39.9992 11.7296 39.0641 13.9871 37.3996 15.6516L28.9436 24.1103L27.0556 22.2223L35.5143 13.7663C36.0909 13.1897 36.5482 12.5052 36.8603 11.7518C37.1723 10.9985 37.3329 10.191 37.3329 9.3756C37.3329 8.56018 37.1723 7.75274 36.8603 6.99939C36.5482 6.24604 36.0909 5.56153 35.5143 4.98494C34.9377 4.40835 34.2532 3.95097 33.4998 3.63892C32.7465 3.32687 31.939 3.16626 31.1236 3.16626C30.3082 3.16626 29.5007 3.32687 28.7474 3.63892C27.994 3.95097 27.3095 4.40835 26.7329 4.98494L18.2769 13.4436L16.3889 11.5556L24.8476 3.0996ZM28.9436 13.4436L12.9436 29.4436L11.0556 27.5556L27.0556 11.5556L28.9436 13.4436ZM12.9436 18.7769L4.48494 27.2329C3.35992 28.4054 2.73923 29.9722 2.75602 31.597C2.77282 33.2219 3.42575 34.7754 4.57476 35.9245C5.72376 37.0735 7.27733 37.7264 8.90218 37.7432C10.527 37.76 12.0938 37.1393 13.2663 36.0143L21.7223 27.5556L23.6103 29.4436L15.1516 37.8996C14.3274 38.7238 13.349 39.3776 12.2722 39.8236C11.1953 40.2696 10.0412 40.4992 8.8756 40.4992C7.71004 40.4992 6.5559 40.2696 5.47906 39.8236C4.40222 39.3776 3.42378 38.7238 2.5996 37.8996C1.77543 37.0754 1.12166 36.097 0.675615 35.0201C0.229574 33.9433 -8.68411e-09 32.7892 0 31.6236C8.68411e-09 30.458 0.229574 29.3039 0.675615 28.2271C1.12166 27.1502 1.77543 26.1718 2.5996 25.3476L11.0556 16.8889L12.9436 18.7769Z" fill="#946B55"/>
</g>
<defs>
<clipPath id="clip0_96_698">
<rect width="40" height="40" fill="white" transform="translate(0 0.5)"/>
</clipPath>
</defs>
</svg>
