<svg width="50" height="51" viewBox="0 0 50 51" fill="none" xmlns="http://www.w3.org/2000/svg">
<path d="M12.5072 10.7948V13.0001H10.7144C8.81999 13.0001 7.00317 13.7527 5.66363 15.0922C4.32408 16.4318 3.57153 18.2486 3.57153 20.143V32.643C3.57153 34.0638 4.13595 35.4264 5.1406 36.4311C6.14526 37.4357 7.50787 38.0001 8.92868 38.0001H12.5001V39.7858C12.5001 41.2066 13.0645 42.5693 14.0692 43.5739C15.0738 44.5786 16.4364 45.143 17.8572 45.143H32.143C33.5638 45.143 34.9264 44.5786 35.931 43.5739C36.9357 42.5693 37.5001 41.2066 37.5001 39.7858V38.0001H41.0715C42.4923 38.0001 43.8549 37.4357 44.8596 36.4311C45.8643 35.4264 46.4287 34.0638 46.4287 32.643V20.143C46.4287 18.2486 45.6761 16.4318 44.3366 15.0922C42.997 13.7527 41.1802 13.0001 39.2858 13.0001H37.5001V10.7716C37.5001 10.1261 37.3728 9.48692 37.1256 8.89066C36.8784 8.2944 36.516 7.75273 36.0593 7.29663C35.6025 6.84054 35.0603 6.47896 34.4637 6.2326C33.8671 5.98623 33.2277 5.85991 32.5822 5.86085L17.4108 5.88406C16.1097 5.88595 14.8624 6.40416 13.943 7.3249C13.0236 8.24563 12.5072 9.49361 12.5072 10.7948ZM37.5001 35.3216V30.8573C37.5001 29.4365 36.9357 28.0739 35.931 27.0692C34.9264 26.0645 33.5638 25.5001 32.143 25.5001H17.8572C16.4364 25.5001 15.0738 26.0645 14.0692 27.0692C13.0645 28.0739 12.5001 29.4365 12.5001 30.8573V35.3216H8.92868C8.21827 35.3216 7.53697 35.0394 7.03464 34.537C6.53231 34.0347 6.2501 33.3534 6.2501 32.643V20.143C6.2501 18.959 6.72045 17.8235 7.55766 16.9863C8.39488 16.149 9.53039 15.6787 10.7144 15.6787H39.2858C40.4698 15.6787 41.6053 16.149 42.4425 16.9863C43.2798 17.8235 43.7501 18.959 43.7501 20.143V32.643C43.7501 33.3534 43.4679 34.0347 42.9656 34.537C42.4632 35.0394 41.7819 35.3216 41.0715 35.3216H37.5001ZM34.8215 10.7716V13.0001H15.1858V10.7948C15.1858 9.56263 16.1822 8.56442 17.4144 8.56263L32.5858 8.53942C32.8792 8.53895 33.1699 8.59634 33.4411 8.7083C33.7123 8.82027 33.9588 8.98461 34.1665 9.19193C34.3741 9.39925 34.5389 9.64548 34.6513 9.91653C34.7637 10.1876 34.8215 10.4781 34.8215 10.7716ZM17.8572 28.1787H32.143C32.8534 28.1787 33.5347 28.4609 34.037 28.9632C34.5393 29.4656 34.8215 30.1469 34.8215 30.8573V39.7858C34.8215 40.4962 34.5393 41.1775 34.037 41.6799C33.5347 42.1822 32.8534 42.4644 32.143 42.4644H17.8572C17.1468 42.4644 16.4655 42.1822 15.9632 41.6799C15.4609 41.1775 15.1787 40.4962 15.1787 39.7858V30.8573C15.1787 30.1469 15.4609 29.4656 15.9632 28.9632C16.4655 28.4609 17.1468 28.1787 17.8572 28.1787Z" fill="#946B55"/>
</svg>
