<svg width="50" height="51" viewBox="0 0 50 51" fill="none" xmlns="http://www.w3.org/2000/svg">
<path d="M35.4167 44.25H14.5833M35.4167 44.25H37.0896C39.4187 44.25 40.5833 44.25 41.4729 43.7958C42.2583 43.3958 42.8958 42.7583 43.2958 41.975C43.75 41.0854 43.75 39.9187 43.75 37.5896V19.7083C43.75 18.7708 43.75 18.3021 43.65 17.8563C43.5613 17.4585 43.4146 17.0759 43.2146 16.7208C42.9937 16.325 42.6813 15.9812 42.0688 15.3L36.3292 8.92083C35.6187 8.13333 35.2583 7.73333 34.8271 7.44583C34.4381 7.18775 34.0085 6.99689 33.5562 6.88125C33.0479 6.75 32.5 6.75 31.4062 6.75H12.9167C10.5833 6.75 9.41667 6.75 8.525 7.20417C7.74094 7.60352 7.10352 8.24094 6.70417 9.025C6.25 9.91667 6.25 11.0833 6.25 13.4167V37.5833C6.25 39.9167 6.25 41.0833 6.70417 41.9729C7.10417 42.7583 7.73958 43.3958 8.525 43.7958C9.41458 44.25 10.5812 44.25 12.9104 44.25H14.5833M35.4167 44.25V36.3271C35.4167 33.9979 35.4167 32.8312 34.9625 31.9417C34.5624 31.1575 33.9242 30.5201 33.1396 30.1208C32.25 29.6667 31.0833 29.6667 28.75 29.6667H21.25C18.9167 29.6667 17.75 29.6667 16.8583 30.1208C16.0743 30.5202 15.4368 31.1576 15.0375 31.9417C14.5833 32.8333 14.5833 34 14.5833 36.3333V44.25M31.25 15.0833H18.75" stroke="#946B55" stroke-width="2" stroke-linecap="round" stroke-linejoin="round"/>
</svg>
