<svg width="26" height="26" viewBox="0 0 26 26" fill="none" xmlns="http://www.w3.org/2000/svg">
<path d="M13 1C6.3724 1 1 6.3724 1 13C1 19.6276 6.3724 25 13 25C19.6276 25 25 19.6276 25 13C25 6.3724 19.6276 1 13 1Z" stroke="#946B55" stroke-width="1.5" stroke-linecap="round" stroke-linejoin="round"/>
<path d="M3.72583 20.6153C3.72583 20.6153 6.40063 17.2 13.0006 17.2C19.6006 17.2 22.2766 20.6153 22.2766 20.6153M13.0006 13C13.9554 13 14.8711 12.6208 15.5462 11.9456C16.2213 11.2705 16.6006 10.3548 16.6006 9.40005C16.6006 8.44527 16.2213 7.5296 15.5462 6.85446C14.8711 6.17933 13.9554 5.80005 13.0006 5.80005C12.0459 5.80005 11.1302 6.17933 10.455 6.85446C9.77991 7.5296 9.40063 8.44527 9.40063 9.40005C9.40063 10.3548 9.77991 11.2705 10.455 11.9456C11.1302 12.6208 12.0459 13 13.0006 13Z" stroke="#946B55" stroke-width="1.5" stroke-linecap="round" stroke-linejoin="round"/>
</svg>
