<svg width="127" height="30" viewBox="0 0 127 30" fill="none" xmlns="http://www.w3.org/2000/svg">
<g clip-path="url(#clip0_157_223)">
<path fill-rule="evenodd" clip-rule="evenodd" d="M0 18.8831L4.57636 18.2051C4.77007 19.0645 5.16555 19.7189 5.76282 20.1604C6.35202 20.6019 7.19142 20.8306 8.25681 20.8306C9.43521 20.8306 10.323 20.6256 10.9122 20.1998C11.3158 19.9081 11.5095 19.506 11.5095 19.0093C11.5095 18.6781 11.4046 18.3864 11.1867 18.1735C10.9687 17.9607 10.4522 17.7557 9.66927 17.5822C5.99688 16.7859 3.66431 16.0684 2.67963 15.414C1.3156 14.5073 0.637623 13.2379 0.637623 11.6216C0.637623 10.1551 1.22682 8.93306 2.40521 7.93963C3.5836 6.9462 5.40769 6.44948 7.87747 6.44948C10.3473 6.44948 11.9857 6.82793 13.1318 7.57695C14.2779 8.32596 15.0689 9.44554 15.4967 10.9199L11.2189 11.7005C11.0333 11.0382 10.6862 10.5336 10.1697 10.1867C9.65313 9.83187 8.91865 9.6663 7.96625 9.6663C6.76365 9.6663 5.89196 9.82399 5.3754 10.1551C5.02834 10.3838 4.85885 10.6913 4.85885 11.054C4.85885 11.3693 5.0122 11.6453 5.31084 11.866C5.72247 12.1656 7.14299 12.5756 9.58049 13.1197C12.0099 13.6558 13.7129 14.3181 14.6734 15.0986C15.6339 15.8792 16.102 16.9909 16.102 18.4101C16.102 19.9475 15.4402 21.28 14.1246 22.3838C12.809 23.4876 10.8557 24.0474 8.27296 24.0474C5.93232 24.0474 4.06787 23.5822 2.70384 22.6597C1.33982 21.7373 0.443915 20.4836 0.0242135 18.8989L0 18.8831ZM26.7156 20.0027C35.9329 15.4377 30.7593 8.76748 26.7156 12.891C22.6719 8.76748 17.4983 15.4377 26.7156 20.0027ZM17.8454 14.9961C17.8454 13.5139 18.2166 12.0868 18.9592 10.707C19.7098 9.31939 20.7591 8.26289 22.1231 7.53752C23.4871 6.81216 25.0045 6.4416 26.6914 6.4416C29.2984 6.4416 31.4211 7.26946 33.0838 8.91729C34.7464 10.573 35.5778 12.6624 35.5778 15.1854C35.5778 17.7084 34.7383 19.845 33.0595 21.5165C31.3807 23.188 29.2661 24.0237 26.7237 24.0237C25.1498 24.0237 23.6405 23.6768 22.2119 22.9751C20.7833 22.2813 19.7017 21.2563 18.9511 19.9081C18.2086 18.5599 17.8373 16.9199 17.8373 14.9882L17.8454 14.9961ZM36.0055 6.79639H38.5237V5.52701C38.5237 4.11571 38.6771 3.05132 38.9919 2.3575C39.2986 1.65579 39.8716 1.08811 40.703 0.654474C41.5343 0.220834 42.5835 -0.0078125 43.8588 -0.0078125C45.134 -0.0078125 46.4335 0.181412 47.6845 0.559862L47.1034 3.65053C46.3608 3.48496 45.6506 3.39823 44.9645 3.39823C44.2785 3.39823 43.8104 3.54804 43.5198 3.85553C43.2292 4.15513 43.0759 4.73857 43.0759 5.60585V6.80428H46.49V10.3049H43.0759V23.6216H38.5318V10.3049H36.0136V6.80428L36.0055 6.79639ZM57.4829 6.79639V10.3286H54.3675V17.1328C54.3675 18.5126 54.3917 19.3168 54.4562 19.5454C54.5208 19.7741 54.65 19.9633 54.8679 20.1131C55.0777 20.2629 55.336 20.3338 55.6346 20.3338C56.0624 20.3338 56.6677 20.1919 57.4668 19.9081L57.8461 23.3614C56.7888 23.803 55.5943 24.0237 54.2625 24.0237C53.4473 24.0237 52.7129 23.8897 52.051 23.6216C51.3973 23.3536 50.913 22.9988 50.6063 22.573C50.2996 22.1394 50.0897 21.5638 49.9687 20.8306C49.8799 20.3102 49.8234 19.2616 49.8234 17.6847V10.3286H47.7329V6.79639H49.8234V3.46131L54.3675 0.835814V6.79639H57.4829ZM60.1464 6.79639H64.3919V9.2642C64.9407 8.42057 65.6833 7.74252 66.6276 7.21426C67.5638 6.6939 68.6131 6.43371 69.7592 6.43371C71.7528 6.43371 73.4477 7.1985 74.844 8.73595C76.2323 10.2655 76.9345 12.4022 76.9345 15.1302C76.9345 17.8582 76.2323 20.121 74.8279 21.6821C73.4235 23.2432 71.7205 24.0237 69.7188 24.0237C68.7664 24.0237 67.9028 23.8424 67.1361 23.4639C66.3693 23.0934 65.546 22.4626 64.6986 21.5717V29.9843H60.1545V6.80428L60.1464 6.79639ZM64.6259 14.9409C64.6259 16.8332 65.0053 18.2366 65.772 19.1433C66.5307 20.0421 67.467 20.4994 68.5647 20.4994C69.6623 20.4994 70.5017 20.0815 71.2039 19.2537C71.9061 18.4258 72.2532 17.0618 72.2532 15.1696C72.2532 13.3956 71.89 12.0868 71.1716 11.2274C70.4533 10.368 69.5574 9.94225 68.492 9.94225C67.4266 9.94225 66.4581 10.368 65.7317 11.2038C64.9972 12.0474 64.634 13.2931 64.634 14.9488L64.6259 14.9409ZM89.9049 18.2918L94.4489 19.0408C93.8678 20.665 92.9477 21.9028 91.6886 22.7543C90.4295 23.6059 88.8556 24.0316 86.9669 24.0316C83.9806 24.0316 81.753 23.0776 80.3324 21.1617C79.1944 19.6321 78.6294 17.6926 78.6294 15.3588C78.6294 12.5756 79.38 10.3838 80.8651 8.80691C82.3502 7.23003 84.2389 6.43371 86.515 6.43371C89.0655 6.43371 91.0913 7.26157 92.5683 8.9094C94.0454 10.5572 94.7556 13.096 94.683 16.5099H83.3107C83.343 17.8266 83.7143 18.8516 84.4084 19.5848C85.1025 20.3181 85.9742 20.6886 87.0154 20.6886C87.7256 20.6886 88.3229 20.4994 88.8072 20.121C89.2914 19.7425 89.6546 19.1354 89.9049 18.2918ZM90.1712 13.7898C90.1389 12.4968 89.7999 11.5191 89.1542 10.849C88.5085 10.1788 87.7256 9.83976 86.7975 9.83976C85.8047 9.83976 84.9895 10.1946 84.3438 10.9041C83.6981 11.6137 83.3833 12.5756 83.3914 13.7898H90.1712ZM101.398 11.9764L97.29 11.2668C97.7581 9.62688 98.5572 8.41269 99.6871 7.62425C100.817 6.83582 102.504 6.4416 104.74 6.4416C106.766 6.4416 108.283 6.67024 109.276 7.14331C110.268 7.60848 110.971 8.20769 111.374 8.93306C111.778 9.65842 112.004 10.983 111.98 12.9147L111.915 18.0947C111.899 19.5691 111.988 20.6571 112.133 21.3588C112.278 22.0605 112.545 22.8095 112.948 23.6137H108.436C108.323 23.322 108.162 22.8884 108 22.3207C107.928 22.0605 107.871 21.8871 107.839 21.8003C107.064 22.5415 106.233 23.1013 105.353 23.4718C104.465 23.8424 103.529 24.0316 102.528 24.0316C100.769 24.0316 99.3723 23.5585 98.3554 22.6203C97.3384 21.6821 96.8299 20.4994 96.8299 19.0645C96.8299 18.1183 97.064 17.2668 97.524 16.5257C97.9841 15.7846 98.6379 15.2169 99.4773 14.8227C100.309 14.4285 101.519 14.0815 103.093 13.7898C105.216 13.3956 106.693 13.0329 107.508 12.7018V12.2524C107.508 11.3851 107.29 10.7701 106.862 10.3995C106.427 10.029 105.611 9.84764 104.409 9.84764C103.594 9.84764 102.964 10.0053 102.512 10.3207C102.06 10.6361 101.689 11.188 101.406 11.9843L101.398 11.9764ZM107.5 15.5717C106.919 15.7609 105.999 15.9896 104.732 16.2497C103.473 16.5099 102.633 16.7622 102.254 17.0224C101.656 17.4245 101.366 17.9528 101.366 18.5914C101.366 19.23 101.608 19.7504 102.076 20.2077C102.552 20.6571 103.158 20.8858 103.892 20.8858C104.707 20.8858 105.498 20.6256 106.241 20.0973C106.79 19.7031 107.153 19.2064 107.322 18.6229C107.435 18.2445 107.5 17.5191 107.5 16.4547V15.5717ZM120.414 23.6059H115.87V6.80428H120.083V9.19324C120.809 8.06578 121.463 7.32465 122.036 6.97773C122.617 6.63082 123.271 6.45737 124.006 6.45737C125.047 6.45737 126.048 6.7412 127.008 7.29311L125.596 11.1722C124.829 10.6834 124.111 10.4469 123.457 10.4469C122.803 10.4469 122.27 10.6203 121.834 10.9593C121.391 11.2984 121.043 11.9212 120.793 12.82C120.543 13.7189 120.414 15.5953 120.414 18.4495V23.6295V23.6059Z" fill="#946B55"/>
<path fill-rule="evenodd" clip-rule="evenodd" d="M26.7157 13.4742C23.4791 10.1707 19.3225 15.5163 26.7157 19.1746C34.1089 15.5163 29.9522 10.1628 26.7157 13.4742Z" fill="#B5A596"/>
</g>
<defs>
<clipPath id="clip0_157_223">
<rect width="127" height="30" fill="white"/>
</clipPath>
</defs>
</svg>
